<svg width="24" height="24" viewBox="0 0 24 24" fill="none" xmlns="http://www.w3.org/2000/svg">
<path fill-rule="evenodd" clip-rule="evenodd" d="M1.71389 19.979H12.8569V21.795H1.71389C1.27377 21.8107 0.846099 21.6284 0.524767 21.2879C0.203435 20.9474 0.0147018 20.4767 0 19.979V7.26561C0.0147018 6.76795 0.203435 6.29722 0.524767 5.95676C0.846099 5.6163 1.27377 5.43394 1.71389 5.44971H6.85741V1.81685C6.87211 1.31919 7.06084 0.848454 7.38217 0.507995C7.70351 0.167537 8.13118 -0.0148253 8.5713 0.000943831H15.4287C15.8688 -0.0148253 16.2965 0.167537 16.6178 0.507995C16.9392 0.848454 17.1279 1.31919 17.1426 1.81685V5.44971H22.2861C22.7262 5.43394 23.1539 5.6163 23.4752 5.95676C23.7966 6.29722 23.9853 6.76795 24 7.26561V11.8059H22.2861V7.26561H1.71389V19.979ZM15.4287 1.81685H8.5713V5.44971H15.4287V1.81685ZM18.0002 13.6228H14.5715V17.2515H18.0002V13.6228ZM14.5715 19.9791H18.0002V23.6119H14.5715V19.9791ZM20.5712 19.9791H23.9999V23.6119H20.5712V19.9791ZM20.5712 13.6228H23.9999V17.2515H20.5712V13.6228Z" fill="#AAA9AE"/>
</svg>
