<svg width="43" height="30" viewBox="0 0 43 30" fill="none" xmlns="http://www.w3.org/2000/svg">
<path d="M19.25 13H16.25V12C16.25 10.9391 15.8286 9.92172 15.0784 9.17157C14.3283 8.42143 13.3109 8 12.25 8C11.1891 8 10.1717 8.42143 9.42157 9.17157C8.67143 9.92172 8.25 10.9391 8.25 12V13H5.25C4.98478 13 4.73043 13.1054 4.54289 13.2929C4.35536 13.4804 4.25 13.7348 4.25 14V25C4.25 25.7956 4.56607 26.5587 5.12868 27.1213C5.69129 27.6839 6.45435 28 7.25 28H17.25C18.0456 28 18.8087 27.6839 19.3713 27.1213C19.9339 26.5587 20.25 25.7956 20.25 25V14C20.25 13.7348 20.1446 13.4804 19.9571 13.2929C19.7696 13.1054 19.5152 13 19.25 13ZM10.25 12C10.25 11.4696 10.4607 10.9609 10.8358 10.5858C11.2109 10.2107 11.7196 10 12.25 10C12.7804 10 13.2891 10.2107 13.6642 10.5858C14.0393 10.9609 14.25 11.4696 14.25 12V13H10.25V12ZM18.25 25C18.25 25.2652 18.1446 25.5196 17.9571 25.7071C17.7696 25.8946 17.5152 26 17.25 26H7.25C6.98478 26 6.73043 25.8946 6.54289 25.7071C6.35536 25.5196 6.25 25.2652 6.25 25V15H8.25V16C8.25 16.2652 8.35536 16.5196 8.54289 16.7071C8.73043 16.8946 8.98478 17 9.25 17C9.51522 17 9.76957 16.8946 9.95711 16.7071C10.1446 16.5196 10.25 16.2652 10.25 16V15H14.25V16C14.25 16.2652 14.3554 16.5196 14.5429 16.7071C14.7304 16.8946 14.9848 17 15.25 17C15.5152 17 15.7696 16.8946 15.9571 16.7071C16.1446 16.5196 16.25 16.2652 16.25 16V15H18.25V25Z" fill="#F8F8F8"/>
<path d="M29.518 12V3.588H25.834V5.304H27.382V12H29.518ZM33.9353 12.084C36.2993 12.084 37.8233 10.344 37.8233 7.668C37.8233 5.088 36.4553 3.492 34.1993 3.492C32.3033 3.492 31.0553 4.62 31.0553 6.396C31.0553 8.028 32.1113 9.108 33.7673 9.108C34.7033 9.108 35.3753 8.772 35.7713 8.208C35.7953 9.588 35.1473 10.44 33.8033 10.44C33.1553 10.44 32.5193 10.248 32.0393 9.9L31.2233 11.388C31.9313 11.82 32.9993 12.084 33.9353 12.084ZM34.2473 7.548C33.4793 7.548 33.0353 7.128 33.0353 6.408C33.0353 5.628 33.5153 5.196 34.2833 5.196C35.1473 5.196 35.5433 5.748 35.5433 6.372C35.5433 7.056 35.0753 7.548 34.2473 7.548Z" fill="#F8F8F8"/>
</svg>
