<svg width="10" height="10" viewBox="0 0 10 10" fill="none" xmlns="http://www.w3.org/2000/svg">
<path d="M9.24264 7.82842L6.41421 4.99999L9.24264 2.17156C9.43018 1.98403 9.53553 1.72967 9.53553 1.46446C9.53553 1.19924 9.43018 0.944887 9.24264 0.75735C9.0551 0.569814 8.80075 0.464457 8.53553 0.464457C8.27032 0.464458 8.01596 0.569814 7.82843 0.75735L5 3.58578L2.17157 0.75735C1.98404 0.569814 1.72968 0.464457 1.46447 0.464457C1.19925 0.464457 0.944896 0.569814 0.757359 0.75735C0.569823 0.944886 0.464466 1.19924 0.464466 1.46446C0.464467 1.72967 0.569823 1.98403 0.757359 2.17156L3.58579 4.99999L0.75736 7.82842C0.569823 8.01595 0.464466 8.27031 0.464466 8.53553C0.464466 8.80074 0.569823 9.0551 0.75736 9.24263C0.944896 9.43017 1.19925 9.53553 1.46447 9.53553C1.72968 9.53553 1.98404 9.43017 2.17157 9.24263L5 6.4142L7.82843 9.24263C8.01596 9.43017 8.27032 9.53552 8.53553 9.53552C8.80075 9.53552 9.0551 9.43017 9.24264 9.24263C9.43018 9.0551 9.53553 8.80074 9.53553 8.53553C9.53553 8.27031 9.43018 8.01595 9.24264 7.82842Z" fill="#E7E7E8"/>
</svg>
